<?xml version="1.0" standalone="no"?>
<!DOCTYPE svg PUBLIC "-//W3C//DTD SVG 20010904//EN"
 "http://www.w3.org/TR/2001/REC-SVG-20010904/DTD/svg10.dtd">
<svg version="1.0" xmlns="http://www.w3.org/2000/svg"
 width="512.000000pt" height="512.000000pt" viewBox="0 0 512.000000 512.000000"
 preserveAspectRatio="xMidYMid meet">
<metadata>
Created by potrace 1.11, written by Peter Selinger 2001-2013
</metadata>
<g transform="translate(0.000000,512.000000) scale(0.100000,-0.100000)"
fill="#000000" stroke="none">
<path d="M0 2560 l0 -2560 2560 0 2560 0 0 2560 0 2560 -2560 0 -2560 0 0
-2560z m2340 1410 l0 -170 -221 0 c-141 0 -236 -4 -261 -12 -56 -17 -121 -78
-149 -140 -22 -50 -24 -67 -29 -343 -6 -278 -8 -293 -33 -371 -34 -102 -87
-185 -163 -252 -55 -49 -58 -54 -39 -64 39 -22 95 -84 130 -143 82 -137 109
-306 96 -595 -16 -368 23 -473 195 -536 40 -15 89 -19 262 -22 l212 -4 0 -164
0 -164 -177 0 c-390 0 -586 52 -724 189 -77 77 -120 159 -143 274 -19 89 -20
165 -11 494 10 340 -13 431 -122 484 -41 20 -67 24 -171 27 l-122 4 2 167 3
166 125 5 c141 6 189 23 233 82 55 73 61 109 62 418 1 258 4 292 23 363 63
230 207 377 434 442 90 25 168 32 386 34 l202 1 0 -170z m995 146 c88 -21 204
-75 273 -129 59 -45 130 -138 161 -210 49 -115 54 -147 60 -472 6 -297 7 -312
30 -362 28 -62 84 -117 138 -134 21 -6 86 -14 146 -16 l107 -5 0 -163 0 -163
-122 -4 c-101 -4 -130 -8 -165 -26 -101 -52 -126 -133 -121 -387 9 -546 3
-618 -65 -750 -114 -218 -347 -305 -818 -305 l-169 0 0 165 0 165 187 0 c158
0 198 3 265 21 99 27 156 74 190 157 22 55 23 67 24 387 1 365 7 410 74 550
29 61 114 161 154 182 17 9 12 17 -51 77 -82 77 -133 164 -164 283 -19 69 -21
109 -23 348 l-1 270 -33 68 c-35 71 -74 106 -143 129 -21 7 -120 12 -259 12
l-225 1 -3 169 -2 168 242 -5 c171 -4 264 -10 313 -21z"/>
</g>
</svg>
