<?xml version="1.0" standalone="no"?>
<!DOCTYPE svg PUBLIC "-//W3C//DTD SVG 20010904//EN"
 "http://www.w3.org/TR/2001/REC-SVG-20010904/DTD/svg10.dtd">
<svg version="1.0" xmlns="http://www.w3.org/2000/svg"
 width="512.000000pt" height="512.000000pt" viewBox="0 0 512.000000 512.000000"
 preserveAspectRatio="xMidYMid meet">
<metadata>
Created by potrace 1.11, written by Peter Selinger 2001-2013
</metadata>
<g transform="translate(0.000000,512.000000) scale(0.100000,-0.100000)"
fill="#000000" stroke="none">
<path d="M0 2560 l0 -2560 2560 0 2560 0 0 2560 0 2560 -2560 0 -2560 0 0
-2560z m2348 1413 l-3 -168 -240 -5 c-260 -5 -273 -8 -338 -69 -73 -67 -87
-133 -87 -423 0 -273 -10 -342 -67 -458 -26 -54 -56 -95 -107 -146 l-71 -71
65 -64 c90 -89 144 -205 166 -359 5 -30 8 -190 9 -355 0 -287 1 -302 22 -356
57 -139 160 -179 466 -179 l177 0 0 -165 0 -165 -196 0 c-387 0 -586 57 -726
207 -125 135 -153 275 -136 693 14 355 -1 449 -86 516 -50 40 -107 54 -223 54
l-103 0 0 170 0 170 118 0 c108 0 121 3 172 28 63 32 93 71 117 151 14 46 17
104 18 331 1 291 5 326 55 450 74 188 237 315 460 359 85 17 100 18 328 20
l212 1 -2 -167z m1002 139 c151 -41 259 -105 335 -199 122 -149 157 -304 148
-645 -8 -252 11 -341 84 -410 44 -42 79 -51 213 -57 l125 -6 0 -165 0 -165
-120 -5 c-139 -6 -203 -30 -243 -89 -45 -68 -47 -94 -44 -471 3 -411 -3 -465
-68 -596 -111 -226 -334 -314 -795 -314 l-195 0 0 165 0 165 178 0 c262 0 359
27 428 117 56 73 64 139 62 480 -2 280 -1 303 20 378 35 126 76 201 154 278
37 37 64 67 60 67 -19 0 -133 128 -161 180 -75 140 -84 196 -85 505 -1 244 -3
263 -24 315 -12 31 -39 73 -60 93 -61 60 -101 67 -359 67 l-223 0 0 171 0 171
248 -5 c206 -4 259 -8 322 -25z"/>
</g>
</svg>
